<?xml version="1.0" encoding="UTF-8"?>
<!DOCTYPE svg PUBLIC "-//W3C//DTD SVG 1.1//EN" "http://www.w3.org/Graphics/SVG/1.1/DTD/svg11.dtd">
<!-- Creator: CorelDRAW X7 -->
<svg xmlns="http://www.w3.org/2000/svg" xml:space="preserve" width="5.01482in" height="2.4107in" version="1.1" style="shape-rendering:geometricPrecision; text-rendering:geometricPrecision; image-rendering:optimizeQuality; fill-rule:evenodd; clip-rule:evenodd"
viewBox="0 0 5754 2766"
 xmlns:xlink="http://www.w3.org/1999/xlink">
 <defs>
  <style type="text/css">
   <![CDATA[
    .fil1 {fill:#FEFEFE}
    .fil2 {fill:#345DC5}
    .fil0 {fill:#355CBF}
   ]]>
  </style>
 </defs>
 <g id="Layer_x0020_1">
  <metadata id="CorelCorpID_0Corel-Layer"/>
  <path class="fil0" d="M1389 923c20,-2 41,-1 60,-3 41,-4 30,7 40,-18 -8,-28 6,-18 -40,-21 -16,-1 -44,0 -62,0 -20,-149 111,-276 254,-273 40,0 78,9 110,25 220,109 184,522 -92,543 -147,11 -277,-110 -270,-253zm-207 -73c97,2 78,-5 87,17 -16,31 -148,15 -187,13l-3 -433c-42,-23 -147,-22 -196,-6l-3 525 -232 -320c-36,-50 -76,-107 -111,-161 -20,-33 -21,-52 -82,-55 -200,-9 -140,-17 -148,386l-103 3c6,38 -7,26 101,29 31,1 100,-9 118,19 -15,11 2,4 -22,10 -12,3 -22,3 -35,4 -22,0 -27,-3 -49,3l-2 26c32,19 147,11 193,11l-1 -115c35,38 75,99 101,138 -53,9 -303,1 -392,2 -50,1 -32,-7 -46,17 20,26 73,16 138,17 1,87 -10,302 11,363 244,25 190,4 192,-359l119 -6c75,80 230,351 262,364 39,16 157,5 182,-14 14,-42 7,-288 5,-349l109 -1c51,453 767,583 900,3 36,-2 97,7 120,-18 -25,-32 -35,-10 -116,-20l-3 -63c-77,1 -65,0 -73,-22 36,-15 343,-15 378,0 -8,32 -30,22 -75,21 -9,0 -50,-1 -55,0 -52,7 -25,-11 -36,23 27,38 87,2 168,24 -20,25 -5,4 -27,16 -27,16 -11,-15 -25,21l52 14c84,6 341,27 254,159 -49,74 -202,55 -291,-2 -34,-22 -41,-42 -88,-47 -32,45 -76,88 -84,149 16,102 483,234 638,-4 65,-100 41,-138 37,-248 33,-1 65,-2 98,-2 119,0 80,3 93,-19 -13,-17 -20,-16 -66,-16l-160 0c-36,-1 -47,7 -59,-19 42,-26 100,8 122,-26 -15,-25 -62,-16 -97,-16 -95,1 -70,4 -103,-7 -2,-1 -5,-2 -7,-4 13,-30 -1,-12 31,-20 17,-5 13,8 40,-6 -9,-32 24,-8 -97,-32 -36,-7 -74,-15 -110,-22 -71,-14 -165,-28 -156,-111 8,-77 103,-88 178,-75 93,15 123,79 191,81 19,-25 75,-103 78,-149 -143,-201 -753,-192 -622,276l-118 -1c-27,-48 -74,-411 -474,-398 -245,8 -429,188 -442,432z"/>
  <path class="fil0" d="M4016 620c110,0 317,-39 313,105 -5,132 -207,99 -315,96l2 -201zm-206 -8l-1 204c-15,2 -41,0 -49,2 -45,8 -24,-4 -32,22 37,36 153,-16 181,27 -21,33 -179,2 -219,16 -26,10 -10,-6 -22,19 13,22 -27,18 101,18 34,0 76,-3 105,8 -13,23 -9,17 -96,17 -113,0 -94,-11 -107,18 6,14 -4,20 62,20 26,0 51,0 77,1 1,46 -5,331 10,349 21,24 95,12 125,12 88,0 73,-17 73,-171l-1 -159 91 -4c18,40 221,323 251,333l140 3c83,-10 46,-63 13,-107l-176 -250c49,-32 111,-42 160,-126 37,-65 49,-160 25,-239 -74,-238 -343,-194 -594,-194 -141,0 -117,-4 -117,181z"/>
  <path class="fil1" d="M5475 284c-9,15 -245,229 -290,284 -158,191 -228,281 -348,514 -11,22 -21,57 -49,31 -15,-14 -13,3 -5,-30 1,-7 10,-23 15,-31 13,-23 22,-42 33,-64l150 -237c108,-145 111,-133 226,-249 68,-70 182,-173 268,-218zm-270 132l39 -146c-151,85 -191,219 -251,367 1,-70 25,-135 42,-199 -13,13 -31,26 -45,40 -76,80 -133,192 -161,305 -12,51 -10,112 -28,154 -10,-76 -6,-119 -4,-194 -58,78 -77,244 -48,349 -42,-4 -48,-22 -78,7 2,33 56,60 90,77 32,18 91,63 126,44 17,-20 -18,-45 -31,-61 -11,-15 -10,-5 -12,-24 107,-15 268,-57 322,-155 -67,17 -103,34 -181,31 91,-21 239,-87 271,-144 -60,22 -128,47 -199,39 191,-23 305,-198 388,-315 26,-37 86,-106 97,-134l-192 52c38,-34 106,-51 156,-77 132,-69 251,-312 248,-432 -46,33 -20,41 -134,98 -254,127 -288,60 -415,318z"/>
  <path class="fil1" d="M3480 1754l-2 -142c-74,-3 -170,9 -249,15 -79,5 -60,6 -70,22 23,42 32,2 76,42 62,57 41,222 41,327 0,74 5,165 -2,237 -4,40 -12,68 -40,82 -50,24 -70,-8 -66,45 61,11 379,17 418,-3 -4,-53 -18,-17 -66,-42 -25,-13 -33,-42 -37,-81 -8,-83 -9,-372 20,-442 20,-51 62,-100 125,-107 171,-20 138,186 138,320 -1,89 21,271 -33,307 -45,31 -65,-9 -67,45 26,14 382,14 408,0 -3,-70 -66,7 -96,-87 -13,-44 -9,-136 -9,-186 1,-229 63,-544 -253,-502 -148,20 -178,102 -236,150z"/>
  <path class="fil1" d="M1527 1649c39,76 110,-69 111,255 0,216 -56,523 259,502 135,-9 169,-82 233,-138l9 111c37,16 260,13 293,0 -2,-71 -81,10 -91,-116 -13,-162 11,-446 -3,-649l-308 14c-5,83 83,-10 99,123 8,59 3,152 4,214 0,145 15,290 -105,334 -70,27 -135,7 -163,-39 -41,-68 -18,-502 -26,-643 -64,-6 -176,8 -249,10 -59,2 -55,3 -63,22z"/>
  <path class="fil1" d="M211 2717c1,-4 71,-182 -67,-213 -193,-43 -228,313 119,256 339,-57 294,-456 292,-707 0,-97 -17,-418 27,-479 46,-62 102,-1 96,-69l-463 -1c-4,67 53,15 99,75 44,58 25,444 26,527 0,122 1,248 -3,370 -3,116 -3,244 -126,241z"/>
  <path class="fil1" d="M4576 1968c7,58 9,235 -14,281 -35,70 -137,100 -199,37 -52,-53 -32,-176 11,-225 41,-49 124,-74 202,-93zm-1 -49c-183,92 -456,40 -456,293 0,263 369,230 445,82l24 50c6,19 10,27 19,40 48,12 223,8 273,-2l1 -30c-77,-41 -97,47 -97,-228 -1,-237 45,-449 -174,-507 -176,-46 -495,17 -435,214 28,92 194,81 201,-15 3,-49 -31,-88 -4,-135 25,-44 241,-117 203,238z"/>
  <path class="fil1" d="M1046 1656c88,-35 152,17 181,73 64,124 82,566 -76,625 -182,69 -225,-150 -232,-292 -7,-154 -1,-357 127,-406zm1 -53c-238,24 -374,196 -346,459 24,235 194,374 457,344 225,-26 360,-211 332,-466 -25,-223 -196,-362 -443,-337z"/>
  <path class="fil0" d="M2942 612c40,23 213,11 272,11l3 227c36,5 93,-9 116,17 -19,22 -65,15 -100,15 -100,2 -93,-8 -104,20 20,46 126,-6 161,33l-73 10 2 388c45,25 139,16 191,9 23,-59 11,-606 13,-720l179 0c113,0 109,16 102,-182 -44,-12 -644,-11 -710,-9 -115,3 -54,177 -52,181z"/>
  <path class="fil1" d="M4930 1306c31,62 111,-44 109,211 0,110 11,726 -9,786 -26,77 -84,17 -102,67 11,20 -16,18 89,17 86,-1 280,12 327,-8 -3,-49 16,-21 -38,-35 -31,-8 -34,-5 -49,-30 -33,-57 -1,-903 -17,-1063 -46,-2 -109,10 -156,16 -29,4 -56,8 -85,11 -90,9 -61,5 -69,28z"/>
  <path class="fil1" d="M2785 1773l-1 -162c-51,0 -274,10 -305,29 4,72 93,-15 103,132l0 475c-3,34 -12,70 -30,85 -39,33 -69,-9 -72,47 26,15 387,13 418,0 -2,-51 -10,-16 -63,-42 -29,-13 -39,-37 -45,-68 -9,-55 -4,-164 -4,-224 1,-133 10,-291 121,-327 2,2 3,3 3,7l7 21c12,51 25,121 139,105 81,-11 123,-112 77,-191 -31,-55 -133,-72 -206,-35 -78,41 -119,127 -142,148z"/>
  <path class="fil1" d="M4624 1271c16,86 -8,122 -22,203 37,-26 18,-32 48,-87 7,-13 20,-29 24,-37 16,-32 -1,-25 18,-53 82,6 -4,59 -4,59 -5,6 -48,81 -53,91 29,-11 37,-21 65,-37 25,-14 47,-20 73,-34 5,-60 18,-102 40,-148l-93 -56c-23,20 -21,31 -44,56 -23,25 -28,18 -52,43z"/>
  <path class="fil2" d="M46 893c13,28 -25,16 38,22 12,1 40,-1 54,-1 40,0 73,8 96,-12 -9,-23 15,-17 -33,-22 -33,-3 -131,-5 -155,13z"/>
 </g>
</svg>
