<?xml version="1.0" encoding="UTF-8"?>
<!DOCTYPE svg PUBLIC "-//W3C//DTD SVG 1.1//EN" "http://www.w3.org/Graphics/SVG/1.1/DTD/svg11.dtd">
<!-- Creator: CorelDRAW X7 -->
<svg xmlns="http://www.w3.org/2000/svg" xml:space="preserve" width="9.08981in" height="4.3696in" version="1.1" style="shape-rendering:geometricPrecision; text-rendering:geometricPrecision; image-rendering:optimizeQuality; fill-rule:evenodd; clip-rule:evenodd"
viewBox="0 0 191358 91989"
 xmlns:xlink="http://www.w3.org/1999/xlink">
 <defs>
  <style type="text/css">
   <![CDATA[
    .fil2 {fill:#010102}
    .fil1 {fill:#010203}
    .fil3 {fill:#020404}
    .fil4 {fill:#345DC5}
    .fil0 {fill:#355CBF}
   ]]>
  </style>
 </defs>
 <g id="Layer_x0020_1">
  <metadata id="CorelCorpID_0Corel-Layer"/>
  <path class="fil0" d="M46198 30684c672,-60 1370,-36 1989,-89 1376,-118 1002,227 1331,-607 -274,-937 198,-604 -1323,-698 -551,-35 -1459,22 -2073,10 -649,-4941 3686,-9177 8468,-9091 1302,24 2568,324 3650,857 7314,3608 6112,17362 -3060,18038 -4889,360 -9210,-3649 -8982,-8420zm-6886 -2415c3237,82 2592,-154 2891,550 -519,1042 -4931,530 -6212,448l-106 -14385c-1408,-768 -4896,-759 -6518,-225l-93 17455 -7709 -10616c-1197,-1688 -2554,-3577 -3691,-5372 -696,-1099 -722,-1729 -2737,-1820 -6647,-304 -4662,-566 -4923,12831l-3417 91c176,1265 -235,873 3346,981 1030,31 3323,-306 3931,612 -491,385 54,151 -740,350 -411,103 -724,100 -1153,115 -739,27 -890,-96 -1651,119l-58 877c1080,620 4895,337 6409,342l-11 -3808c1143,1269 2476,3272 3365,4577 -1782,296 -10091,26 -13047,82 -1665,31 -1070,-246 -1524,562 667,856 2422,535 4583,550 39,2907 -342,10048 378,12082 8115,839 6317,125 6356,-11953l3981 -192c2500,2679 7624,11663 8714,12116 1293,536 5209,153 6051,-465 460,-1413 213,-9576 149,-11608l3632 -38c1705,15075 25498,19380 29936,84 1212,-54 3211,241 3993,-576 -829,-1060 -1156,-348 -3857,-657l-87 -2123c-2587,39 -2174,8 -2459,-729 1216,-479 11427,-479 12581,11 -270,1073 -993,722 -2502,703 -279,-3 -1634,-34 -1807,-11 -1755,239 -829,-351 -1215,759 906,1261 2917,74 5594,826 -648,802 -160,105 -881,519 -927,531 -382,-490 -832,702l1717 449c2794,193 11351,898 8445,5305 -1626,2466 -6729,1811 -9678,-89 -1115,-719 -1363,-1386 -2924,-1564 -1075,1500 -2515,2947 -2798,4963 532,3386 16058,7801 21214,-118 2159,-3316 1384,-4586 1241,-8257 1086,-18 2171,-53 3259,-59 3963,-20 2674,78 3095,-630 -441,-568 -674,-529 -2204,-527l-5303 -16c-1218,-20 -1568,225 -1992,-627 1410,-880 3328,280 4058,-877 -495,-826 -2040,-527 -3210,-516 -3159,29 -2326,125 -3416,-249 -67,-23 -168,-64 -244,-112 443,-1024 -35,-411 1026,-684 569,-146 445,277 1349,-193 -314,-1059 776,-261 -3240,-1049 -1204,-236 -2445,-521 -3647,-756 -2371,-465 -5483,-906 -5192,-3693 264,-2539 3409,-2901 5900,-2488 3119,517 4093,2617 6349,2707 646,-830 2517,-3420 2613,-4955 -4767,-6677 -25031,-6390 -20690,9187l-3908 -55c-927,-1583 -2490,-13676 -15796,-13235 -8128,270 -14250,6269 -14684,14372z"/>
  <path class="fil0" d="M133549 20631c3662,5 10566,-1302 10413,3477 -142,4409 -6857,3295 -10447,3197l34 -6674zm-6832 -292l-44 6811c-503,40 -1342,2 -1635,56 -1468,267 -798,-138 -1047,735 1210,1200 5072,-522 6021,878 -719,1109 -5944,69 -7281,563 -866,320 -336,-224 -741,606 429,742 -894,594 3356,594 1132,0 2542,-85 3512,283 -455,780 -305,551 -3219,552 -3758,0 -3120,-358 -3544,618 194,453 -152,661 2063,660 860,-1 1704,7 2565,25 22,1523 -184,10999 333,11606 691,811 3139,420 4137,419 2950,-3 2436,-585 2428,-5693l-32 -5293 3024 -125c627,1329 7346,10746 8355,11054l4670 108c2747,-314 1506,-2079 417,-3552l-5837 -8332c1616,-1050 3689,-1378 5305,-4186 1236,-2150 1648,-5327 828,-7951 -2468,-7895 -11389,-6454 -19742,-6435 -4691,11 -3902,-126 -3892,5999z"/>
  <path class="fil1" d="M182103 9459c-309,487 -8176,7604 -9671,9424 -5228,6370 -7581,9353 -11563,17107 -378,737 -712,1878 -1618,1036 -516,-480 -447,87 -192,-1011 53,-227 365,-766 509,-1027 422,-761 728,-1395 1115,-2114l4981 -7884c3603,-4846 3682,-4424 7500,-8299 2288,-2322 6071,-5740 8939,-7232zm-8985 4378l1303 -4841c-5028,2818 -6372,7267 -8362,12202 34,-2346 821,-4511 1380,-6616 -429,428 -1014,837 -1483,1330 -2530,2659 -4421,6368 -5339,10142 -407,1670 -344,3697 -945,5103 -341,-2528 -209,-3962 -122,-6445 -1940,2585 -2578,8126 -1601,11593 -1399,-109 -1596,-710 -2607,262 84,1082 1882,1965 2986,2557 1082,579 3030,2090 4215,1457 554,-661 -621,-1499 -1025,-2033 -381,-504 -333,-174 -400,-793 3537,-494 8913,-1911 10700,-5167 -2238,574 -3420,1141 -6034,1049 3020,-708 7955,-2905 9017,-4798 -1981,726 -4259,1560 -6606,1303 6356,-763 10143,-6595 12887,-10497 870,-1236 2856,-3498 3233,-4430l-6398 1704c1273,-1115 3547,-1674 5208,-2545 4382,-2297 8355,-10393 8231,-14374 -1518,1083 -653,1369 -4448,3259 -8453,4208 -9569,2002 -13790,10578z"/>
  <path class="fil2" d="M115743 58326l-55 -4728c-2481,-91 -5666,327 -8285,505 -2645,181 -2005,200 -2333,738 774,1394 1068,60 2508,1391 2073,1916 1369,7392 1377,10889 6,2454 161,5486 -65,7876 -128,1346 -390,2261 -1324,2719 -1662,815 -2338,-242 -2218,1511 2058,369 12606,543 13919,-118 -147,-1752 -588,-543 -2185,-1377 -834,-435 -1124,-1390 -1243,-2699 -253,-2772 -283,-12359 656,-14702 685,-1711 2058,-3323 4173,-3567 5677,-657 4588,6208 4570,10650 -13,2950 695,9011 -1077,10224 -1501,1027 -2156,-312 -2226,1471 842,471 12696,466 13561,0 -96,-2317 -2188,229 -3183,-2889 -460,-1442 -305,-4515 -302,-6175 11,-7613 2098,-18092 -8417,-16687 -4941,660 -5917,3393 -7851,4968z"/>
  <path class="fil2" d="M50784 54841c1307,2543 3651,-2294 3679,8479 20,7194 -1861,17401 8617,16703 4506,-300 5638,-2726 7758,-4607l289 3705c1230,516 8656,442 9764,-12 -58,-2353 -2705,345 -3033,-3862 -419,-5377 357,-14804 -110,-21554l-10245 448c-142,2763 2762,-335 3319,4091 248,1967 94,5051 101,7135 18,4820 509,9633 -3470,11110 -2346,870 -4508,232 -5432,-1305 -1366,-2272 -585,-16721 -851,-21380 -2124,-229 -5847,240 -8292,320 -1960,65 -1815,85 -2094,729z"/>
  <path class="fil2" d="M7023 90355c18,-113 2354,-6051 -2225,-7072 -6424,-1432 -7578,10418 3954,8494 11257,-1878 9765,-15152 9722,-23486 -16,-3241 -592,-13918 886,-15926 1537,-2089 3380,-45 3185,-2319l-15380 -32c-135,2236 1761,497 3276,2487 1476,1938 844,14768 851,17544 11,4061 49,8240 -71,12292 -115,3876 -101,8130 -4198,8018z"/>
  <path class="fil2" d="M152192 65454c224,1937 312,7801 -452,9341 -1163,2345 -4587,3316 -6639,1228 -1727,-1758 -1059,-5835 366,-7489 1384,-1609 4114,-2437 6725,-3080zm-27 -1623c-6088,3047 -15164,1323 -15171,9724 -7,8746 12273,7668 14797,2743l794 1648c187,641 334,922 648,1325 1572,401 7403,273 9065,-46l34 -993c-2561,-1388 -3231,1541 -3238,-7602 -6,-7860 1509,-14906 -5783,-16842 -5841,-1550 -16450,553 -14456,7117 931,3065 6438,2691 6671,-523 116,-1605 -1017,-2926 -130,-4477 842,-1471 8024,-3905 6769,7926z"/>
  <path class="fil2" d="M34772 55067c2928,-1139 5080,577 6038,2446 2113,4124 2713,18800 -2535,20783 -6050,2286 -7475,-4989 -7703,-9704 -248,-5129 -37,-11878 4200,-13525zm50 -1757c-7902,787 -12437,6535 -11517,15275 822,7813 6467,12425 15201,11421 7500,-863 11981,-7013 11047,-15498 -816,-7403 -6505,-12018 -14731,-11198z"/>
  <path class="fil0" d="M97861 20352c1322,759 7077,374 9020,369l115 7542c1191,184 3075,-285 3839,556 -628,752 -2131,501 -3324,523 -3325,62 -3081,-263 -3455,646 676,1533 4212,-197 5364,1116l-2414 330 65 12884c1471,840 4625,549 6351,319 758,-1970 346,-20158 410,-23936l5958 -1c3748,-14 3620,504 3383,-6059 -1435,-407 -21394,-366 -23583,-305 -3823,107 -1806,5885 -1729,6016z"/>
  <path class="fil2" d="M163950 43438c1046,2053 3704,-1451 3649,7017 -23,3649 360,24156 -312,26152 -856,2541 -2784,542 -3379,2210 359,659 -545,593 2954,554 2852,-31 9316,431 10881,-262 -114,-1612 536,-671 -1269,-1154 -1035,-277 -1139,-147 -1627,-979 -1114,-1899 -54,-30035 -584,-35382 -1504,-63 -3628,340 -5186,552 -963,131 -1867,267 -2822,365 -2986,307 -2010,168 -2305,927z"/>
  <path class="fil2" d="M92629 58955l-45 -5386c-1699,19 -9115,326 -10134,980 144,2380 3080,-514 3424,4377l-16 15805c-87,1120 -393,2316 -969,2812 -1305,1124 -2301,-276 -2400,1566 861,514 12874,455 13894,0 -74,-1688 -324,-518 -2103,-1375 -952,-458 -1301,-1247 -1479,-2260 -322,-1835 -144,-5468 -136,-7476 17,-4397 335,-9656 4027,-10850 43,67 82,101 95,220l227 703c406,1694 821,4016 4626,3485 2693,-376 4082,-3720 2568,-6347 -1047,-1814 -4441,-2411 -6845,-1153 -2596,1359 -3978,4204 -4734,4899z"/>
  <path class="fil3" d="M153781 42268c529,2851 -277,4077 -725,6741 1218,-867 606,-1064 1585,-2883 239,-444 678,-973 809,-1230 541,-1060 -50,-833 597,-1766 2729,220 -130,1960 -131,1960 -173,194 -1600,2695 -1762,3040 958,-360 1234,-706 2145,-1227 839,-481 1575,-668 2456,-1126 149,-2003 596,-3404 1327,-4946l-3107 -1853c-755,679 -687,1017 -1475,1866 -760,819 -908,612 -1719,1424z"/>
  <path class="fil4" d="M1515 29696c454,951 -811,549 1285,722 379,32 1331,-23 1789,-19 1331,11 2419,261 3203,-411 -299,-762 481,-545 -1122,-710 -1070,-110 -4337,-162 -5155,418z"/>
 </g>
</svg>
